# xmcd
#
# Track frame offsets:
#	150
#	14518
#	33655
#	49938
#	68478
#	83028
#	99081
#	114007
#	126199
#	142930
#	165661
#	184614
#	201912
#	220024
#	238176
#	270708
#
# Disc length: 3615 seconds
#
# Revision: 1
# Processed by: cddbd v1.5.2PL0 Copyright (c) Steve Scherf et al.
# Submitted via: audiograbber 1.83.01
#
DISCID=d40e1d10
DTITLE=Various Artist - KEY SP05C1
DYEAR=1900
DGENRE=Karaoke
TTITLE0=Alan Jackson - When Somebody Loves You
TTITLE1=Amy Dalley - I Would Cry
TTITLE2=Andy Griggs - If Heaven
TTITLE3=Blaine Larsen - How Do You Get That Lonely
TTITLE4=Gretchen Wilson - When It Rains
TTITLE5=Jimmy Buffett and Martina McBride - Trip Around The Sun
TTITLE6=Jo Dee Messina - My Give A Damn's Busted
TTITLE7=Josh Gracin - Nothin' To Lose
TTITLE8=Miranda Lambert - Me And Charlie Talking
TTITLE9=Montgomery Gentry - Cold One Comin' On
TTITLE10=Montgomery Gentry - Gone
TTITLE11=Rascal Flatts - Bless the Broken Road
TTITLE12=Shania Twain - Don't
TTITLE13=Terri Clark - I Think The World Needs A Drink
TTITLE14=Tim McGraw - Drugs Or Jesus
TTITLE15=Data - Data Track
EXTD=
EXTT0=
EXTT1=
EXTT2=
EXTT3=
EXTT4=
EXTT5=
EXTT6=
EXTT7=
EXTT8=
EXTT9=
EXTT10=
EXTT11=
EXTT12=
EXTT13=
EXTT14=
EXTT15=
PLAYORDER=
